<svg width="320" height="54" xmlns="http://www.w3.org/2000/svg">
 <!-- Created with Method Draw - http://github.com/duopixel/Method-Draw/ -->

 <g>
  <title>background</title>
  <rect fill="#fff" id="canvas_background" height="56" width="322" y="-1" x="-1"/>
  <g display="none" overflow="visible" y="0" x="0" height="100%" width="100%" id="canvasGrid">
   <rect fill="url(#gridpattern)" stroke-width="0" y="1" x="1" height="400" width="500"/>
  </g>
 </g>
 <g>
  <title>Layer 1</title>
  <text xml:space="preserve" text-anchor="start" font-family="Arvo, sans-serif" font-size="40" id="svg_1" y="41" x="54.5" stroke-width="0" stroke="#000" fill="#000000">email</text>
  <text font-weight="bold" xml:space="preserve" text-anchor="start" font-family="Arvo, sans-serif" font-size="40" id="svg_2" y="41" x="151.5" stroke-width="0" stroke="#000" fill="#000000">persona</text>
  <g id="svg_8">
   <path id="svg_7" fill-rule="evenodd" fill="#3F51B5" d="m29.676981,32.149155c-0.723698,-0.917476 -1.356516,-1.370027 -2.926863,-1.524267c-0.284658,-0.05184 -0.490951,-0.297244 -0.490951,-0.588231c0,-0.213333 0.697885,-0.852836 0.690916,-0.859165c0.724267,-0.730098 1.11168,-1.912391 1.11168,-2.823609c0,-1.414471 -1.252978,-2.584178 -2.907449,-2.584178c-1.686471,0 -2.907236,1.169707 -2.907236,2.584178c0,0.917405 0.381013,2.106027 1.104782,2.836694c0,0 0.697742,0.632676 0.697742,0.846009c0,0.303502 -0.232676,0.562133 -0.542578,0.600676c-1.538133,0.155236 -2.158294,0.607573 -2.875094,1.511822c-0.200676,0.26496 -0.3168,0.787911 -0.323058,1.06624l0,1.214436c0,0.536462 0.44544,0.969245 0.994987,0.969245l7.701192,0c0.549547,0 0.994987,-0.432782 0.994987,-0.969245l0,-1.214436c-0.006258,-0.278258 -0.116764,-0.801209 -0.323058,-1.066169zm7.75289,-7.08729l-3.230365,0c-0.891449,0 -1.615289,0.723698 -1.615289,1.615147c0,0.89152 0.72384,1.615289 1.615289,1.615289l3.230365,0c0.891449,0 1.61536,-0.72384 1.61536,-1.615289c0,-0.89152 -0.72384,-1.615147 -1.61536,-1.615147zm0,5.814685l-3.230365,0c-0.891449,0 -1.615289,0.723556 -1.615289,1.615289c0,0.891449 0.72384,1.615005 1.615289,1.615005l3.230365,0c0.891449,0 1.61536,-0.723556 1.61536,-1.615005c0,-0.891805 -0.72384,-1.615289 -1.61536,-1.615289zm-22.935682,7.75289c0,1.42784 1.156551,2.584249 2.584178,2.584249l25.843274,0c1.427769,0 2.584178,-1.156409 2.584178,-2.584249l0,-20.674562c0,-1.427698 -1.156409,-2.584178 -2.584178,-2.584178l-7.75289,0l0,-1.162951c0,-0.787911 -0.6336,-1.42144 -1.421582,-1.42144l-7.494259,0c-0.788125,0 -1.42144,0.633529 -1.42144,1.42144l0,1.162951l-7.753032,0c-1.427698,0 -2.584178,1.15648 -2.584178,2.584178l0,20.674562l-0.000071,0zm4.651947,-20.028447l5.685334,0l0,1.162951c0,0.787982 0.633387,1.42144 1.42144,1.42144l7.494187,0c0.787982,0 1.421582,-0.633458 1.421582,-1.42144l0,-1.162951l5.685263,0c0.788196,0 1.421511,0.633529 1.421511,1.421582l0,16.539451c0,0.787911 -0.633316,1.421298 -1.421511,1.421298l-21.707807,0c-0.788125,0 -1.421582,-0.633387 -1.421582,-1.421298l0,-16.539451c-0.000071,-0.788053 0.633458,-1.421582 1.421582,-1.421582z" clip-rule="evenodd"/>
  </g>
 </g>
</svg>